<svg width="46" height="46" viewBox="0 0 46 46" fill="none" xmlns="http://www.w3.org/2000/svg">
<circle cx="23" cy="23" r="23" fill="#FF711B"/>
<path d="M33.0812 9.14124L33.1737 10.0259C31.082 10.2444 29.0265 10.7283 27.057 11.4658L26.7448 10.6329C28.7851 9.86886 30.9143 9.36761 33.0812 9.14124V9.14124Z" fill="white"/>
<path d="M35.796 9H36.6856V9.88952H35.796C35.214 9.88952 34.6258 9.90986 34.0478 9.94989L33.9862 9.06254C34.5846 9.02101 35.1936 9 35.796 9Z" fill="white"/>
<path d="M35.9832 14.3371H36.6855V15.2266H35.9832C34.3071 15.2257 32.6379 15.4394 31.0161 15.8625L30.7911 15.0018C32.4863 14.5596 34.2312 14.3362 35.9832 14.3371V14.3371Z" fill="white"/>
<path d="M29.8838 18.0219L29.2549 18.6507L30.1443 19.5401L30.7732 18.9112L29.8838 18.0219Z" fill="white"/>
<path d="M28.1047 16.2432L27.4758 16.8721L28.3652 17.7615L28.9941 17.1326L28.1047 16.2432Z" fill="white"/>
<path d="M26.3255 14.4645L25.6966 15.0934L26.586 15.9827L27.2149 15.3538L26.3255 14.4645Z" fill="white"/>
<path d="M24.5464 12.6859L23.9175 13.3147L24.8069 14.2041L25.4358 13.5752L24.5464 12.6859Z" fill="white"/>
<path d="M22.7673 10.9072L22.1384 11.5361L23.0277 12.4254L23.6566 11.7965L22.7673 10.9072Z" fill="white"/>
<path d="M31.6629 35.371L31.0339 36L30.0141 34.9802L29.4391 35.5552C29.3978 35.5965 29.3488 35.6293 29.2948 35.6517C29.2409 35.674 29.183 35.6855 29.1246 35.6855C29.0662 35.6855 29.0084 35.674 28.9544 35.6517C28.9004 35.6293 28.8514 35.5965 28.8101 35.5552L26.2249 32.9701L26.854 32.3411L27.7903 33.2775L33.2577 27.8101L33.8867 28.4391L28.4193 33.9065L29.1246 34.6118L35.6118 28.1246L22.5835 15.0964C22.5082 15.0199 22.4186 14.9591 22.3196 14.9174C22.2207 14.8758 22.1145 14.8541 22.0072 14.8537C21.8999 14.8533 21.7936 14.8741 21.6943 14.915C21.5951 14.9559 21.5049 15.016 21.429 15.0919C21.3531 15.1678 21.293 15.2579 21.2521 15.3572C21.2113 15.4564 21.1904 15.5627 21.1908 15.6701C21.1912 15.7774 21.2129 15.8836 21.2545 15.9825C21.2962 16.0814 21.357 16.1711 21.4335 16.2464L25.4363 20.2492C25.4776 20.2905 25.5103 20.3395 25.5327 20.3935C25.555 20.4475 25.5666 20.5053 25.5666 20.5637C25.5666 20.6221 25.555 20.68 25.5327 20.7339C25.5103 20.7879 25.4776 20.8369 25.4363 20.8782C25.395 20.9195 25.346 20.9523 25.292 20.9746C25.238 20.997 25.1802 21.0085 25.1218 21.0085C25.0634 21.0085 25.0055 20.997 24.9516 20.9746C24.8976 20.9523 24.8486 20.9195 24.8073 20.8782L20.8045 16.8754C20.7292 16.7989 20.6395 16.7381 20.5406 16.6965C20.4416 16.6548 20.3355 16.6332 20.2281 16.6327C20.1208 16.6323 20.0145 16.6532 19.9152 16.694C19.816 16.7349 19.7258 16.795 19.6499 16.8709C19.5741 16.9468 19.5139 17.037 19.473 17.1362C19.4322 17.2354 19.4113 17.3418 19.4117 17.4491C19.4122 17.5564 19.4338 17.6626 19.4754 17.7615C19.5171 17.8604 19.5779 17.9501 19.6544 18.0254L23.6572 22.0283C23.7406 22.1117 23.7874 22.2248 23.7874 22.3427C23.7874 22.4606 23.7406 22.5737 23.6572 22.6571C23.5723 22.7377 23.4597 22.7826 23.3426 22.7826C23.2256 22.7826 23.113 22.7377 23.0281 22.6571L19.0253 18.6543C18.95 18.5778 18.8603 18.517 18.7614 18.4754C18.6624 18.4337 18.5563 18.4121 18.4489 18.4117C18.3416 18.4112 18.2353 18.4321 18.136 18.4729C18.0368 18.5138 17.9466 18.5739 17.8707 18.6498C17.7949 18.7257 17.7347 18.8159 17.6938 18.9151C17.653 19.0143 17.6321 19.1207 17.6325 19.228C17.633 19.3353 17.6546 19.4415 17.6962 19.5404C17.7379 19.6393 17.7987 19.729 17.8752 19.8043L21.878 23.8072C21.9614 23.8906 22.0082 24.0037 22.0082 24.1216C22.0082 24.2396 21.9614 24.3527 21.878 24.4361C21.7933 24.517 21.6806 24.5621 21.5634 24.5621C21.4463 24.5621 21.3336 24.517 21.2489 24.4361L17.2461 20.4332C17.1708 20.3568 17.0811 20.2959 16.9822 20.2543C16.8832 20.2127 16.7771 20.191 16.6697 20.1906C16.5624 20.1902 16.4561 20.211 16.3568 20.2519C16.2576 20.2927 16.1674 20.3529 16.0915 20.4288C16.0157 20.5046 15.9555 20.5948 15.9146 20.694C15.8738 20.7933 15.8529 20.8996 15.8533 21.0069C15.8538 21.1143 15.8754 21.2204 15.917 21.3194C15.9587 21.4183 16.0195 21.508 16.096 21.5833L21.4542 26.9415C21.5119 27.0016 21.5518 27.0765 21.5694 27.1579C21.587 27.2393 21.5816 27.324 21.5538 27.4026C21.526 27.4811 21.4769 27.5503 21.412 27.6026C21.3471 27.6548 21.269 27.688 21.1863 27.6984L18.239 28.0086C18.0493 28.0285 17.8741 28.1192 17.7483 28.2626C17.6226 28.406 17.5555 28.5915 17.5605 28.7822C17.5655 28.9729 17.6422 29.1547 17.7753 29.2913C17.9084 29.4279 18.0881 29.5093 18.2786 29.5193L24.1811 29.8299C24.2908 29.8356 24.3946 29.8818 24.4722 29.9596L26.242 31.7293L25.613 32.3583L23.9643 30.7094L23.2059 30.6695L21.7481 32.1274C21.4601 32.4074 21.0758 32.5666 20.6742 32.5722C20.4747 32.5728 20.277 32.5337 20.0927 32.4574C19.9083 32.3811 19.741 32.2689 19.6003 32.1274L17.7987 30.3258C17.5558 30.2449 17.3351 30.1084 17.154 29.9274C16.973 29.7463 16.8366 29.5256 16.7556 29.2827L10.759 23.286C10.2731 22.7998 10.0001 22.1406 10 21.4532C10.002 20.7662 10.2747 20.1077 10.759 19.6204L18.3676 12.012L18.9966 12.6409L11.388 20.2494C11.0699 20.5694 10.8908 21.002 10.8895 21.4532C10.8896 21.9047 11.0689 22.3377 11.388 22.657L16.8159 28.0851C16.9299 27.8321 17.106 27.6119 17.3279 27.4452L11.9019 21.7603L12.5455 21.1462L18.2419 27.1141L20.1664 26.9115L15.4674 22.2125C15.2245 21.9698 15.0606 21.6592 14.9974 21.3217C14.9342 20.9841 14.9746 20.6353 15.1133 20.3211C15.252 20.007 15.4825 19.7421 15.7745 19.5613C16.0665 19.3806 16.4064 19.2924 16.7494 19.3083C16.7483 19.2821 16.7477 19.2558 16.7477 19.2294C16.7476 18.9993 16.7942 18.7715 16.8847 18.5599C16.9752 18.3483 17.1077 18.1573 17.2742 17.9984C17.4406 17.8394 17.6376 17.7159 17.8531 17.6353C18.0687 17.5547 18.2983 17.5186 18.5282 17.5293C18.5271 17.5031 18.5265 17.4768 18.5265 17.4504C18.5264 17.2202 18.573 16.9925 18.6636 16.7809C18.7541 16.5692 18.8866 16.3782 19.053 16.2193C19.2195 16.0603 19.4165 15.9368 19.6321 15.8562C19.8477 15.7756 20.0774 15.7395 20.3073 15.7503C20.3061 15.7241 20.3055 15.6978 20.3055 15.6714C20.3055 15.3346 20.4054 15.0054 20.5925 14.7254C20.7796 14.4454 21.0456 14.2272 21.3567 14.0983C21.6678 13.9695 22.0101 13.9357 22.3404 14.0014C22.6707 14.0671 22.9741 14.2293 23.2123 14.4674L30.6813 21.9361L31.6089 21.0085L31.0339 20.4335L31.6629 19.8045L32.2379 20.3795L32.4983 20.119C32.6139 19.9997 32.6785 19.8401 32.6785 19.674C32.6785 19.5079 32.6139 19.3483 32.4983 19.2291L23.657 10.388C23.4188 10.1499 23.1154 9.98784 22.7852 9.92219C22.4549 9.85655 22.1126 9.89029 21.8016 10.0192C21.595 10.1044 21.4073 10.2298 21.2495 10.388L19.6266 12.0108L18.9976 11.3818L20.6204 9.75909C20.8611 9.51841 21.1469 9.3275 21.4613 9.19725C21.7758 9.06701 22.1129 8.99998 22.4532 9C23.1403 9.00192 23.7988 9.27466 24.286 9.75904L33.1274 18.6002C33.4077 18.8881 33.5669 19.2725 33.5722 19.6742C33.5727 19.8737 33.5337 20.0714 33.4574 20.2557C33.381 20.44 33.2689 20.6074 33.1274 20.7481L31.3103 22.5651L36.5552 27.8101C36.5965 27.8514 36.6293 27.9004 36.6517 27.9544C36.674 28.0084 36.6855 28.0662 36.6855 28.1246C36.6855 28.183 36.674 28.2409 36.6517 28.2948C36.6293 28.3488 36.5965 28.3978 36.5552 28.4391L35.9802 29.0141L37 30.0339L36.371 30.6629L35.3512 29.6431L30.6431 34.3512L31.6629 35.371ZM21.5529 30.5825L21.7883 30.8291L22.0107 30.6067L21.5529 30.5825ZM20.6742 31.6732C20.7562 31.6747 20.8377 31.66 20.914 31.63C20.9903 31.6 21.0599 31.5552 21.119 31.4983L21.159 31.4582L20.2577 30.5143L19.1889 30.4581L20.2294 31.4983C20.3491 31.6125 20.5088 31.6753 20.6742 31.6732V31.6732Z" fill="white"/>
<path d="M12.4657 26.0569L11.6327 25.7446C10.582 28.5486 10.0326 31.5923 10 34.7913L10.8895 34.8005C10.921 31.7052 11.4513 28.7635 12.4657 26.0569Z" fill="white"/>
<path d="M16.8988 30.4469L16.0316 30.2499C15.7082 31.6752 15.5423 33.1606 15.5246 34.7911L16.4141 34.8008C16.4309 33.234 16.5895 31.8099 16.8988 30.4469V30.4469Z" fill="white"/>
</svg>
