<svg width="46" height="46" viewBox="0 0 46 46" fill="none" xmlns="http://www.w3.org/2000/svg">
<circle cx="23" cy="23" r="23" fill="#FF711B"/>
<path d="M27.9965 16.3039C28.3693 16.6767 28.9849 16.6221 29.2886 16.1969L31.4126 13.2233C31.6854 12.8415 31.597 12.3109 31.2151 12.0381C30.8333 11.7654 30.3027 11.8538 30.0299 12.2356L28.4889 14.3931L27.4988 13.4031C27.1671 13.0713 26.6291 13.0713 26.2973 13.4031C25.9655 13.7349 25.9655 14.2728 26.2973 14.6046L27.9965 16.3039Z" fill="white"/>
<path d="M20.2045 25.7954C19.8727 25.4636 19.3348 25.4636 19.003 25.7954L18.4022 26.3961L17.8014 25.7954C17.4696 25.4636 16.9317 25.4636 16.5999 25.7954C16.2681 26.1272 16.2681 26.6651 16.5999 26.9969L17.2007 27.5977L16.5999 28.1984C16.2681 28.5302 16.2681 29.0681 16.5999 29.3999C16.9316 29.7317 17.4695 29.7318 17.8014 29.3999L18.4022 28.7992L19.003 29.4C19.3347 29.7318 19.8727 29.7318 20.2045 29.4C20.5363 29.0682 20.5363 28.5303 20.2045 28.1985L19.6037 27.5977L20.2045 26.9969C20.5363 26.6651 20.5363 26.1272 20.2045 25.7954V25.7954Z" fill="white"/>
<path d="M14.9472 21.6504C14.7219 21.6504 14.5058 21.7399 14.3465 21.8992L9.24885 26.9969C8.91835 27.3274 8.91688 27.8627 9.2455 28.1951L14.3432 33.3494C14.5027 33.5108 14.7203 33.6016 14.9472 33.6016H20.9511V36.1504C20.9511 36.6196 21.3315 37 21.8007 37H25.1992C25.6684 37 26.0488 36.6196 26.0488 36.1504V33.6016H31.9961C32.4653 33.6016 32.8457 33.2212 32.8457 32.752V22.5C32.8457 22.0308 32.4653 21.6504 31.9961 21.6504H26.0488V19.9512H32.0527C32.278 19.9512 32.4941 19.8617 32.6534 19.7023L37.7511 14.6047C38.0816 14.2742 38.0831 13.7388 37.7544 13.4065L32.6568 8.25216C32.4972 8.09079 32.2797 8 32.0527 8H15.0039C14.5347 8 14.1543 8.3804 14.1543 8.84961V19.1016C14.1543 19.5708 14.5347 19.9512 15.0039 19.9512H20.9511V21.6504H14.9472ZM24.3496 35.3008H22.6504V33.6016H24.3496V35.3008ZM31.1465 31.9023H15.3019L11.0478 27.6009L15.2991 23.3496H31.1465V31.9023ZM15.8535 9.69922H31.698L35.9521 14.0006L31.7008 18.252H15.8535V9.69922ZM22.6504 19.9512H24.3496V21.6504H22.6504V19.9512Z" fill="white"/>
</svg>
