<svg width="46" height="46" viewBox="0 0 46 46" fill="none" xmlns="http://www.w3.org/2000/svg">
<circle cx="23" cy="23" r="23" fill="#FF711B"/>
<path d="M14.7501 29.9999H11.7501C11.3361 29.9999 11.0001 29.6639 11.0001 29.2499C11.0001 28.8359 11.3361 28.4999 11.7501 28.4999H14.7501C15.1641 28.4999 15.5001 28.8359 15.5001 29.2499C15.5001 29.6639 15.1641 29.9999 14.7501 29.9999Z" fill="white"/>
<path d="M39.1249 30H37.2499C36.8359 30 36.4999 29.664 36.4999 29.25C36.4999 28.836 36.8359 28.5 37.2499 28.5H38.5024L39.5134 23.112C39.4999 20.355 37.1449 18 34.2499 18H29.3254L26.9389 28.5H31.2499C31.6639 28.5 31.9999 28.836 31.9999 29.25C31.9999 29.664 31.6639 30 31.2499 30H25.9999C25.7719 30 25.5559 29.8965 25.4134 29.718C25.2709 29.541 25.2169 29.307 25.2679 29.085L27.9949 17.085C28.0729 16.7415 28.3759 16.5 28.7269 16.5H34.2499C37.9714 16.5 40.9999 19.5285 40.9999 23.25L39.8614 29.388C39.7954 29.7435 39.4864 30 39.1249 30Z" fill="white"/>
<path d="M34.2499 32.9999C32.1829 32.9999 30.4999 31.3184 30.4999 29.2499C30.4999 27.1814 32.1829 25.4999 34.2499 25.4999C36.3169 25.4999 37.9999 27.1814 37.9999 29.2499C37.9999 31.3184 36.3169 32.9999 34.2499 32.9999ZM34.2499 26.9999C33.0094 26.9999 31.9999 28.0094 31.9999 29.2499C31.9999 30.4904 33.0094 31.4999 34.2499 31.4999C35.4904 31.4999 36.4999 30.4904 36.4999 29.2499C36.4999 28.0094 35.4904 26.9999 34.2499 26.9999Z" fill="white"/>
<path d="M17.75 32.9999C15.683 32.9999 14 31.3184 14 29.2499C14 27.1814 15.683 25.4999 17.75 25.4999C19.817 25.4999 21.5 27.1814 21.5 29.2499C21.5 31.3184 19.817 32.9999 17.75 32.9999ZM17.75 26.9999C16.5095 26.9999 15.5 28.0094 15.5 29.2499C15.5 30.4904 16.5095 31.4999 17.75 31.4999C18.9905 31.4999 20 30.4904 20 29.2499C20 28.0094 18.9905 26.9999 17.75 26.9999Z" fill="white"/>
<path d="M14.7499 16.5001H8.74988C8.33588 16.5001 7.99988 16.1641 7.99988 15.7501C7.99988 15.3361 8.33588 15.0001 8.74988 15.0001H14.7499C15.1639 15.0001 15.4999 15.3361 15.4999 15.7501C15.4999 16.1641 15.1639 16.5001 14.7499 16.5001Z" fill="white"/>
<path d="M14.75 21.0001H7.25C6.836 21.0001 6.5 20.6641 6.5 20.2501C6.5 19.8361 6.836 19.5001 7.25 19.5001H14.75C15.164 19.5001 15.5 19.8361 15.5 20.2501C15.5 20.6641 15.164 21.0001 14.75 21.0001Z" fill="white"/>
<path d="M14.75 25.4999H5.75C5.336 25.4999 5 25.1639 5 24.7499C5 24.3359 5.336 23.9999 5.75 23.9999H14.75C15.164 23.9999 15.5 24.3359 15.5 24.7499C15.5 25.1639 15.164 25.4999 14.75 25.4999Z" fill="white"/>
<path d="M26.0001 30H20.7501C20.3361 30 20.0001 29.664 20.0001 29.25C20.0001 28.836 20.3361 28.5 20.7501 28.5H25.4016L28.8096 13.5H11.7501C11.3361 13.5 11.0001 13.164 11.0001 12.75C11.0001 12.336 11.3361 12 11.7501 12H29.7501C29.9781 12 30.1941 12.1035 30.3366 12.282C30.4791 12.459 30.5331 12.693 30.4821 12.915L26.7321 29.415C26.6541 29.7585 26.3496 30 26.0001 30Z" fill="white"/>
</svg>
