<svg width="46" height="46" viewBox="0 0 46 46" fill="none" xmlns="http://www.w3.org/2000/svg">
<circle cx="23" cy="23" r="23" fill="#FF711B"/>
<path d="M26.8919 20.4076C27.1925 20.4076 27.4838 20.3034 27.7162 20.1127C27.9486 19.9219 28.1077 19.6566 28.1663 19.3617C28.225 19.0669 28.1796 18.7608 28.0379 18.4957C27.8962 18.2306 27.6669 18.0228 27.3892 17.9078C27.1115 17.7927 26.8024 17.7775 26.5147 17.8648C26.2271 17.952 25.9786 18.1363 25.8115 18.3863C25.6445 18.6362 25.5693 18.9364 25.5988 19.2355C25.6282 19.5347 25.7605 19.8144 25.9731 20.027C26.0934 20.148 26.2366 20.244 26.3944 20.3093C26.5521 20.3747 26.7212 20.4081 26.8919 20.4076V20.4076ZM26.5857 18.8019C26.6669 18.7207 26.7771 18.6751 26.8919 18.6751C27.0068 18.6751 27.1169 18.7207 27.1981 18.8019C27.2587 18.8625 27.3 18.9397 27.3167 19.0237C27.3334 19.1077 27.3248 19.1948 27.292 19.274C27.2593 19.3531 27.2037 19.4208 27.1325 19.4684C27.0613 19.5159 26.9775 19.5414 26.8919 19.5414C26.8062 19.5414 26.7225 19.5159 26.6512 19.4684C26.58 19.4208 26.5245 19.3531 26.4917 19.274C26.4589 19.1948 26.4504 19.1077 26.4671 19.0237C26.4838 18.9397 26.525 18.8625 26.5856 18.8019H26.5857Z" fill="white"/>
<path d="M12.5742 32.8085L13.1866 32.196L13.799 32.8085L13.1866 33.4209L12.5742 32.8085Z" fill="white"/>
<path d="M14.1063 31.2769L20.5369 24.8462L21.1493 25.4587L14.7187 31.8893L14.1063 31.2769Z" fill="white"/>
<path d="M35.7239 17.6574L33.8199 16.9176L33.3401 15.76L34.1643 13.8868C34.1995 13.8069 34.2097 13.7182 34.1936 13.6325C34.1775 13.5467 34.1359 13.4678 34.0742 13.406L32.5938 11.9257C32.5321 11.864 32.4532 11.8224 32.3674 11.8063C32.2816 11.7902 32.193 11.8004 32.1131 11.8355L30.24 12.6599L29.0824 12.1804L28.3429 10.2761C28.3112 10.1948 28.2558 10.1249 28.1837 10.0756C28.1117 10.0263 28.0264 9.99999 27.9391 10H25.8449C25.7576 9.99999 25.6724 10.0263 25.6004 10.0756C25.5283 10.1249 25.4728 10.1948 25.4412 10.2761L24.7014 12.1801L23.5438 12.6599L21.6706 11.8358C21.5907 11.8006 21.502 11.7904 21.4163 11.8065C21.3305 11.8226 21.2516 11.8642 21.1899 11.9259L19.7095 13.4062C19.6478 13.4679 19.6062 13.5468 19.5901 13.6326C19.574 13.7184 19.5842 13.807 19.6193 13.8869L20.4436 15.7601L19.9639 16.9177L18.0599 17.6574C17.9786 17.689 17.9087 17.7445 17.8594 17.8166C17.8101 17.8886 17.7838 17.9738 17.7838 18.0611V20.1551C17.7838 20.2424 17.8101 20.3276 17.8594 20.3996C17.9087 20.4717 17.9786 20.5272 18.0599 20.5588L18.362 20.6762C18.3599 20.6913 18.3571 20.7063 18.3551 20.7215C18.2104 21.8468 18.4069 22.9896 18.9191 24.002L10.5982 31.7594C10.4137 31.9309 10.2657 32.1378 10.163 32.3678C10.0602 32.5979 10.0049 32.8462 10.0003 33.0981C9.99572 33.35 10.0419 33.6002 10.1362 33.8338C10.2305 34.0674 10.3709 34.2796 10.549 34.4577L11.5357 35.4444C11.7135 35.6238 11.9256 35.7655 12.1594 35.861C12.3933 35.9564 12.644 36.0036 12.8965 35.9998C13.149 35.996 13.3982 35.9412 13.629 35.8387C13.8598 35.7362 14.0676 35.5882 14.2398 35.4034L19.8725 29.3722L19.2394 28.7809L13.6063 34.8127C13.5122 34.9136 13.3984 34.9941 13.2719 35.0493C13.1455 35.1046 13.0091 35.1333 12.8711 35.1338C12.5997 35.1329 12.3397 35.0243 12.1483 34.8319L11.1615 33.8452C11.0676 33.7518 10.9932 33.6407 10.9425 33.5183C10.8918 33.396 10.8659 33.2647 10.8662 33.1323C10.8665 32.9936 10.8952 32.8565 10.9506 32.7294C11.006 32.6023 11.087 32.4879 11.1885 32.3934L19.7562 24.406C19.8283 24.3387 19.8753 24.2488 19.8895 24.1511C19.9036 24.0535 19.8839 23.9539 19.8337 23.869C19.2856 22.9454 19.0669 21.8632 19.2133 20.7993C19.3597 19.7353 19.8626 18.7524 20.6397 18.0112C21.2018 17.4774 21.8847 17.0876 22.6302 16.8753C23.3757 16.6629 24.1616 16.6342 24.9205 16.7917L22.1013 19.611C22.0444 19.6678 22.0045 19.7394 21.986 19.8177C21.9675 19.896 21.9712 19.9779 21.9967 20.0542L22.9154 22.8106C22.9367 22.8744 22.9725 22.9324 23.0201 22.9799C23.0676 23.0275 23.1256 23.0633 23.1894 23.0846L25.9457 24.0034C26.0221 24.0288 26.1039 24.0325 26.1822 24.014C26.2605 23.9955 26.3321 23.9556 26.389 23.8987L28.7002 21.5877C28.6783 22.3443 28.4765 23.0848 28.1114 23.7478C27.7463 24.4109 27.2285 24.9774 26.6009 25.4004C25.9733 25.8235 25.2539 26.0909 24.5023 26.1805C23.7507 26.2701 22.9886 26.1794 22.2791 25.9158C22.199 25.8861 22.112 25.8807 22.0288 25.9004C21.9457 25.92 21.8703 25.9638 21.812 26.0263L20.0864 27.8738L20.7195 28.465L22.2538 26.822C23.1628 27.1055 24.1288 27.1539 25.0615 26.9628L25.4412 27.9399C25.4728 28.0213 25.5283 28.0911 25.6004 28.1404C25.6724 28.1897 25.7576 28.216 25.8449 28.216H27.9389C28.0262 28.216 28.1114 28.1897 28.1834 28.1404C28.2555 28.0911 28.311 28.0213 28.3426 27.9399L29.0824 26.0359L30.24 25.5563L32.1132 26.3804C32.1931 26.4156 32.2818 26.4258 32.3675 26.4097C32.4533 26.3936 32.5322 26.352 32.594 26.2903L34.0744 24.8098C34.1361 24.7481 34.1778 24.6692 34.1939 24.5834C34.21 24.4976 34.1998 24.409 34.1646 24.3291L33.3401 22.4562L33.8197 21.2986L35.7239 20.5591C35.8052 20.5274 35.8751 20.472 35.9244 20.3999C35.9737 20.3279 36 20.2426 36 20.1553V18.0611C36 17.9738 35.9737 17.8886 35.9244 17.8166C35.8751 17.7445 35.8052 17.689 35.7239 17.6574V17.6574ZM18.6499 19.5105V18.3575L19.452 18.0459C19.1121 18.4906 18.8416 18.9845 18.6499 19.5105V19.5105ZM26.3964 16.541L28.6933 17.3067L29.459 19.6036L27.3875 21.6752L25.0905 20.9095L24.3248 18.6126L26.3964 16.541ZM25.9658 23.0969L23.6687 22.3313L22.9031 20.0342L23.6399 19.2974L24.3371 21.3889C24.3584 21.4527 24.3942 21.5107 24.4417 21.5583C24.4893 21.6058 24.5473 21.6416 24.6111 21.6629L26.7024 22.3601L25.9658 23.0969ZM35.1339 19.8587L33.3337 20.5581C33.2791 20.5794 33.2295 20.6114 33.1877 20.6524C33.1459 20.6933 33.1128 20.7423 33.0904 20.7964L32.4692 22.2957C32.4468 22.3498 32.4356 22.4078 32.4362 22.4662C32.4368 22.5247 32.4493 22.5824 32.4728 22.636L33.2525 24.4072L32.191 25.4688L30.4197 24.6891C30.3662 24.6656 30.3084 24.6532 30.25 24.6525C30.1915 24.6519 30.1335 24.6631 30.0795 24.6855L28.5801 25.3067C28.5261 25.3291 28.4771 25.3622 28.4363 25.404C28.3954 25.4458 28.3634 25.4955 28.3422 25.55L27.6427 27.3502H26.1413L25.8981 26.7244C27.0629 26.2956 28.0517 25.4912 28.7086 24.4381C29.7828 24.0686 30.7215 23.3856 31.4037 22.4773C32.1262 21.5094 32.5184 20.3348 32.5224 19.127C32.5264 17.9192 32.1421 16.742 31.426 15.7693L30.7289 16.2836C31.3346 17.1066 31.6597 18.1025 31.6563 19.1244C31.6528 20.1462 31.3211 21.1399 30.71 21.9589C30.3225 22.4747 29.8352 22.9074 29.2771 23.2312C29.5425 22.4366 29.6277 21.5929 29.5267 20.7613L30.2608 20.0272C30.3177 19.9703 30.3576 19.8987 30.3761 19.8204C30.3946 19.7421 30.3909 19.6602 30.3655 19.5839L29.4467 16.8275C29.4254 16.7637 29.3896 16.7058 29.3421 16.6582C29.2945 16.6107 29.2365 16.5748 29.1727 16.5536L26.4163 15.6348C26.34 15.6094 26.2582 15.6057 26.1799 15.6242C26.1016 15.6426 26.03 15.6825 25.9731 15.7394L25.6298 16.0827C24.9141 15.8602 24.1614 15.7821 23.4152 15.8528C24.2658 14.9435 25.4387 14.4036 26.6826 14.3486C27.9265 14.2937 29.1425 14.7281 30.07 15.5588L30.648 14.9136C30.0359 14.3655 29.3113 13.9581 28.525 13.7198C27.7387 13.4815 26.9098 13.4181 26.0965 13.5342C25.2831 13.6502 24.505 13.9429 23.8167 14.3915C23.1284 14.8402 22.5467 15.4341 22.1122 16.1314C21.73 16.261 21.3629 16.4313 21.017 16.6393L21.3148 15.921C21.3372 15.867 21.3484 15.809 21.3478 15.7505C21.3471 15.692 21.3347 15.6343 21.3111 15.5808L20.5315 13.8095L21.593 12.748L23.3643 13.5276C23.4178 13.5511 23.4755 13.5636 23.534 13.5642C23.5925 13.5649 23.6505 13.5537 23.7045 13.5313L25.2038 12.91C25.2579 12.8876 25.3068 12.8545 25.3477 12.8127C25.3886 12.7709 25.4206 12.7213 25.4418 12.6668L26.1412 10.8666H27.6425L28.342 12.6668C28.3631 12.7213 28.3951 12.7709 28.436 12.8127C28.4769 12.8545 28.5258 12.8876 28.5798 12.91L30.0792 13.5313C30.1332 13.5537 30.1912 13.5649 30.2497 13.5642C30.3082 13.5636 30.3659 13.5511 30.4194 13.5276L32.1908 12.748L33.2522 13.8095L32.4726 15.5807C32.449 15.6343 32.4365 15.692 32.4359 15.7505C32.4353 15.809 32.4465 15.867 32.4689 15.921L33.0902 17.4204C33.1125 17.4744 33.1456 17.5234 33.1874 17.5644C33.2292 17.6053 33.2789 17.6374 33.3334 17.6586L35.1336 18.3581L35.1339 19.8587Z" fill="white"/>
</svg>
