<svg width="46" height="46" viewBox="0 0 46 46" fill="none" xmlns="http://www.w3.org/2000/svg">
<circle cx="23" cy="23" r="23" fill="#FF711B"/>
<path d="M26.5093 16.9904C26.2541 16.8094 25.9005 16.8693 25.7195 17.1245L25.7085 17.14C25.5275 17.3951 25.5875 17.7486 25.8427 17.9297C25.9422 18.0002 26.0566 18.0342 26.17 18.0342C26.3473 18.0342 26.5219 17.9512 26.6324 17.7955L26.6434 17.7801C26.8244 17.525 26.7644 17.1714 26.5093 16.9904Z" fill="white"/>
<path d="M25.2187 18.5958C25.0203 18.3538 24.6634 18.3187 24.4216 18.5171C23.6347 19.1626 22.7405 19.622 21.7638 19.8828C21.4616 19.9635 21.282 20.2739 21.3627 20.5761C21.4303 20.8294 21.6593 20.9966 21.9096 20.9966C21.9579 20.9966 22.0071 20.9904 22.056 20.9772C23.1898 20.6745 24.2274 20.1414 25.14 19.3929C25.3819 19.1945 25.4171 18.8376 25.2187 18.5958Z" fill="white"/>
<path d="M36.3008 20.8274C35.3638 20.8274 34.6016 21.5897 34.6016 22.5266V22.8098C34.6016 25.1852 32.872 27.1629 30.6064 27.5531C30.9023 27.1167 31.0754 26.5905 31.0754 26.0247V25.6313C31.0754 24.1258 29.8505 22.901 28.345 22.901C26.8395 22.901 25.6147 24.1258 25.6147 25.6313V26.0247C25.6147 26.5761 25.7796 27.0895 26.0618 27.5193C23.8852 27.0579 22.2467 25.1219 22.2467 22.8098V22.5266C22.2467 21.5897 21.4844 20.8274 20.5474 20.8274C19.6105 20.8274 18.8482 21.5897 18.8482 22.5266V22.8098C18.8482 23.9595 19.0821 25.0713 19.5335 26.0984H15.7829H15.6795V20.3943C15.6795 20.1414 15.5119 19.9192 15.2688 19.8497C12.2448 18.9849 10.1328 16.1851 10.1328 13.041V12.7578C10.1328 12.4455 10.3869 12.1914 10.6992 12.1914C11.0115 12.1914 11.2656 12.4455 11.2656 12.7578V13.041C11.2656 16.3203 13.9336 18.9883 17.2129 18.9883H19.9388C23.2182 18.9883 25.8861 16.3203 25.8861 13.041V12.7578C25.8861 12.4455 26.1402 12.1914 26.4525 12.1914C26.7648 12.1914 27.0189 12.4455 27.0189 12.7578V13.041C27.0189 13.9116 26.8621 14.7621 26.5527 15.5686C26.4407 15.8606 26.5866 16.1883 26.8787 16.3003C27.1707 16.4124 27.4984 16.2663 27.6104 15.9743C27.9696 15.0378 28.1517 14.0509 28.1517 13.041V12.7578C28.1517 11.8209 27.3895 11.0586 26.4525 11.0586C25.5156 11.0586 24.7533 11.8209 24.7533 12.7578V13.041C24.7533 15.4163 23.0238 17.394 20.7582 17.7843C21.0541 17.3479 21.2271 16.8218 21.2271 16.256V15.8626C21.2271 14.3571 20.0023 13.1322 18.4968 13.1322C16.9913 13.1322 15.7665 14.3571 15.7665 15.8626V16.256C15.7665 16.8074 15.9313 17.3208 16.2135 17.7505C14.0369 17.2891 12.3984 15.3531 12.3984 13.041V12.7578C12.3984 11.8209 11.6362 11.0586 10.6992 11.0586C9.76227 11.0586 9 11.8209 9 12.7578V13.041C9 14.8595 9.58464 16.5838 10.6907 18.0273C11.673 19.3093 13.0304 20.2858 14.5467 20.8093V26.6648C14.5467 26.9776 14.8003 27.2312 15.1131 27.2312H15.2165V36.4336C15.2165 36.7464 15.4701 37 15.7829 37C16.0958 37 16.3493 36.7464 16.3493 36.4336V27.2312H20.142C20.2658 27.4237 20.3981 27.6122 20.5389 27.796C20.5764 27.845 20.6155 27.8925 20.654 27.9406V36.4336C20.654 36.7464 20.9076 37 21.2204 37C21.5333 37 21.7868 36.7464 21.7868 36.4336V29.0981C22.5586 29.7448 23.4456 30.2502 24.395 30.5781V36.4336C24.395 36.7464 24.6486 37 24.9614 37C25.2742 37 25.5278 36.7464 25.5278 36.4336V30.163C25.5278 29.9102 25.3602 29.6879 25.1171 29.6185C22.0931 28.7536 19.9811 25.9539 19.9811 22.8098V22.5266C19.9811 22.2142 20.2352 21.9602 20.5475 21.9602C20.8598 21.9602 21.1139 22.2142 21.1139 22.5266V22.8098C21.1139 26.0891 23.7818 28.7571 27.0612 28.7571H29.7871C33.0664 28.7571 35.7344 26.0891 35.7344 22.8098V22.5266C35.7344 22.2142 35.9885 21.9602 36.3008 21.9602C36.6131 21.9602 36.8672 22.2142 36.8672 22.5266V22.8098C36.8672 26.0119 34.7062 28.8253 31.6122 29.6515C31.3643 29.7177 31.1919 29.9422 31.1919 30.1987V34.3001C31.1919 34.6129 31.4455 34.8665 31.7583 34.8665C32.0711 34.8665 32.3247 34.6129 32.3247 34.3001V30.6217C35.6877 29.5292 38 26.3776 38 22.8098V22.5266C38 21.5897 37.2377 20.8274 36.3008 20.8274ZM16.8993 15.8625C16.8993 14.9816 17.6159 14.265 18.4968 14.265C19.3776 14.265 20.0943 14.9816 20.0943 15.8625V16.2559C20.0943 17.1368 19.3777 17.8534 18.4968 17.8534C17.6159 17.8534 16.8993 17.1368 16.8993 16.2559V15.8625V15.8625ZM29.9426 26.0247C29.9426 26.9056 29.226 27.6222 28.345 27.6222C27.4642 27.6222 26.7475 26.9056 26.7475 26.0247V25.6313C26.7475 24.7504 27.4642 24.0338 28.345 24.0338C29.2259 24.0338 29.9426 24.7504 29.9426 25.6313V26.0247Z" fill="white"/>
<path d="M32.1586 36.0331C32.0533 35.9277 31.9071 35.8672 31.7582 35.8672C31.6092 35.8672 31.4631 35.9277 31.3577 36.0331C31.2524 36.1385 31.1918 36.2846 31.1918 36.4336C31.1918 36.5826 31.2524 36.7287 31.3577 36.834C31.4631 36.9393 31.6092 37 31.7582 37C31.9071 37 32.0533 36.9394 32.1586 36.834C32.264 36.7287 32.3246 36.5826 32.3246 36.4336C32.3246 36.2846 32.264 36.1385 32.1586 36.0331Z" fill="white"/>
<path d="M18.4967 29.1836C18.1839 29.1836 17.9303 29.4372 17.9303 29.75V36.4336C17.9303 36.7464 18.1839 37 18.4967 37C18.8095 37 19.0631 36.7464 19.0631 36.4336V29.75C19.0631 29.4372 18.8095 29.1836 18.4967 29.1836Z" fill="white"/>
<path d="M35.3945 12.6445C35.0817 12.6445 34.8281 12.8982 34.8281 13.2109V13.915C34.8281 14.2278 35.0817 14.4814 35.3945 14.4814C35.7074 14.4814 35.9609 14.2278 35.9609 13.915V13.2109C35.9609 12.8982 35.7074 12.6445 35.3945 12.6445Z" fill="white"/>
<path d="M35.3945 16.0186C35.0817 16.0186 34.8281 16.2722 34.8281 16.585V17.289C34.8281 17.6018 35.0817 17.8554 35.3945 17.8554C35.7074 17.8554 35.9609 17.6018 35.9609 17.289V16.585C35.9609 16.2722 35.7074 16.0186 35.3945 16.0186Z" fill="white"/>
<path d="M37.4335 14.6836H36.7295C36.4167 14.6836 36.1631 14.9372 36.1631 15.25C36.1631 15.5628 36.4167 15.8164 36.7295 15.8164H37.4335C37.7464 15.8164 37.9999 15.5628 37.9999 15.25C37.9999 14.9372 37.7464 14.6836 37.4335 14.6836Z" fill="white"/>
<path d="M34.0595 14.6836H33.3555C33.0426 14.6836 32.7891 14.9372 32.7891 15.25C32.7891 15.5628 33.0426 15.8164 33.3555 15.8164H34.0595C34.3723 15.8164 34.6259 15.5628 34.6259 15.25C34.6259 14.9372 34.3723 14.6836 34.0595 14.6836Z" fill="white"/>
<path d="M21.4537 8C21.1408 8 20.8873 8.25364 20.8873 8.56641V9.27045C20.8873 9.58322 21.1408 9.83686 21.4537 9.83686C21.7665 9.83686 22.0201 9.58322 22.0201 9.27045V8.56641C22.0201 8.25364 21.7665 8 21.4537 8Z" fill="white"/>
<path d="M21.4537 11.374C21.1408 11.374 20.8873 11.6277 20.8873 11.9404V12.6445C20.8873 12.9572 21.1408 13.2109 21.4537 13.2109C21.7665 13.2109 22.0201 12.9572 22.0201 12.6445V11.9404C22.0201 11.6277 21.7665 11.374 21.4537 11.374Z" fill="white"/>
<path d="M23.4927 10.0391H22.7886C22.4758 10.0391 22.2222 10.2927 22.2222 10.6055C22.2222 10.9182 22.4758 11.1719 22.7886 11.1719H23.4927C23.8055 11.1719 24.0591 10.9182 24.0591 10.6055C24.0591 10.2927 23.8055 10.0391 23.4927 10.0391Z" fill="white"/>
<path d="M20.1187 10.0391H19.4146C19.1018 10.0391 18.8482 10.2927 18.8482 10.6055C18.8482 10.9182 19.1018 11.1719 19.4146 11.1719H20.1187C20.4315 11.1719 20.6851 10.9182 20.6851 10.6055C20.6851 10.2927 20.4315 10.0391 20.1187 10.0391Z" fill="white"/>
</svg>
