<svg width="46" height="46" viewBox="0 0 46 46" fill="none" xmlns="http://www.w3.org/2000/svg">
<circle cx="23" cy="23" r="23" fill="#FF711B"/>
<path d="M11.3158 31.3684H20.668L21.1943 30.0526H11.3158C11.0736 30.0526 10.8772 29.8563 10.8772 29.614V28.7368C10.879 28.1776 11.2347 27.6809 11.7636 27.4991C11.9594 21.5187 16.7403 16.7044 22.7193 16.4671V15.579H21.8421C21.1154 15.579 20.5263 14.9899 20.5263 14.2632C20.5263 13.5365 21.1154 12.9474 21.8421 12.9474H24.4737C25.2004 12.9474 25.7895 13.5365 25.7895 14.2632C25.7895 14.9899 25.2004 15.579 24.4737 15.579H23.5965V16.4671C29.5755 16.7044 34.3564 21.5187 34.5522 27.4991C35.0811 27.6809 35.4368 28.1776 35.4386 28.7368V29.614C35.4386 29.8563 35.2422 30.0526 35 30.0526H25.1215L25.6478 31.3684H35C35.7267 31.3684 36.3158 31.9575 36.3158 32.6842V33.5614C36.3158 33.8036 36.1194 34 35.8772 34H10.4386C10.1964 34 10 33.8036 10 33.5614V32.6842C10 31.9575 10.5891 31.3684 11.3158 31.3684ZM24.4737 14.7018C24.7159 14.7018 24.9123 14.5054 24.9123 14.2632C24.9123 14.021 24.7159 13.8246 24.4737 13.8246H21.8421C21.5999 13.8246 21.4035 14.021 21.4035 14.2632C21.4035 14.5054 21.5999 14.7018 21.8421 14.7018H24.4737ZM23.1579 17.3333C17.5177 17.3401 12.8826 21.7861 12.6408 27.4211H33.675C33.4332 21.7861 28.7981 17.3401 23.1579 17.3333ZM34.5614 29.1754V28.7368C34.5614 28.4946 34.365 28.2982 34.1228 28.2982H12.193C11.9508 28.2982 11.7544 28.4946 11.7544 28.7368V29.1754H34.5614ZM21.6127 31.3684H24.7031L24.1768 30.0526H22.1391L21.6127 31.3684ZM10.8772 33.1228H35.4386V32.6842C35.4386 32.442 35.2422 32.2456 35 32.2456H11.3158C11.0736 32.2456 10.8772 32.442 10.8772 32.6842V33.1228Z" fill="white"/>
<path d="M27.7531 19.3728C29.8561 20.5106 31.4614 22.3889 32.2579 24.6434L31.4307 24.9355C30.7063 22.886 29.2466 21.1783 27.3347 20.1439L27.7531 19.3728Z" fill="white"/>
<path d="M25.9163 18.6101C26.2274 18.7031 26.5336 18.8118 26.8338 18.9355L26.4996 19.7465C26.2269 19.6341 25.9488 19.5354 25.6663 19.4509L25.9163 18.6101Z" fill="white"/>
<path d="M22.7194 9H23.5966V11.6316H22.7194V9Z" fill="white"/>
<path d="M26.6666 13.8245H29.2982V14.7017H26.6666V13.8245Z" fill="white"/>
<path d="M27.3398 9.89927L27.9601 10.5195L26.0993 12.3803L25.479 11.7601L27.3398 9.89927Z" fill="white"/>
<path d="M18.9762 9.89837L20.837 11.7592L20.2168 12.3794L18.356 10.5186L18.9762 9.89837Z" fill="white"/>
<path d="M17.0176 13.8245H19.6492V14.7017H17.0176V13.8245Z" fill="white"/>
</svg>
