<svg width="46" height="46" viewBox="0 0 46 46" fill="none" xmlns="http://www.w3.org/2000/svg">
<circle cx="23" cy="23" r="23" fill="#FF711B"/>
<path d="M13.133 24.4099C13.1316 24.5866 13.2739 24.731 13.4506 24.7323L21.966 24.7964C22.1427 24.7977 22.2872 24.6554 22.2885 24.4787C22.2899 24.302 22.1476 24.1575 21.9709 24.1562L13.4555 24.0922C13.2787 24.0909 13.1343 24.2332 13.133 24.4099V24.4099Z" fill="white"/>
<path d="M21.3557 27.0317L13.4338 26.9721C13.2571 26.9708 13.1126 27.1131 13.1113 27.2898C13.11 27.4665 13.2523 27.611 13.429 27.6123L21.3509 27.6718C21.5276 27.6732 21.672 27.5309 21.6734 27.3542C21.6747 27.1775 21.5324 27.033 21.3557 27.0317Z" fill="white"/>
<path d="M21.3342 29.9115L13.4122 29.852C13.2355 29.8506 13.0911 29.9929 13.0898 30.1696C13.0884 30.3463 13.2307 30.4908 13.4074 30.4921L21.3293 30.5517C21.5061 30.553 21.6505 30.4107 21.6518 30.234C21.6532 30.0573 21.5109 29.9128 21.3342 29.9115Z" fill="white"/>
<path d="M23.7589 14.601L28.5926 14.6373C28.7693 14.6387 28.9138 14.4964 28.9151 14.3197C28.9164 14.143 28.7741 13.9985 28.5974 13.9972L23.7637 13.9608C23.587 13.9595 23.4426 14.1018 23.4413 14.2785C23.4399 14.4552 23.5822 14.5997 23.7589 14.601Z" fill="white"/>
<path d="M23.7374 17.4809L28.5711 17.5172C28.7478 17.5185 28.8923 17.3763 28.8936 17.1995C28.8949 17.0228 28.7526 16.8784 28.5759 16.8771L23.7423 16.8407C23.5655 16.8394 23.4211 16.9817 23.4198 17.1584C23.4184 17.3351 23.5607 17.4796 23.7374 17.4809Z" fill="white"/>
<path d="M18.5656 16.0301L21.5566 16.0526C21.666 16.0534 21.7554 15.9653 21.7562 15.856C21.757 15.7466 21.669 15.6572 21.5596 15.6564L18.5685 15.6339C18.4592 15.6331 18.3698 15.7212 18.369 15.8305C18.3682 15.9399 18.4562 16.0292 18.5656 16.0301Z" fill="white"/>
<path d="M23.6708 32.8091L13.3904 32.7318C13.2137 32.7305 13.0692 32.8728 13.0679 33.0495C13.0666 33.2262 13.2089 33.3707 13.3856 33.372L23.666 33.4493C23.8427 33.4506 23.9871 33.3083 23.9885 33.1316C23.9898 32.9549 23.8475 32.8105 23.6708 32.8091V32.8091Z" fill="white"/>
<path d="M35.4499 28.8095C35.4574 28.8099 35.4644 28.8104 35.4715 28.8105C35.6386 28.8117 35.7801 28.6832 35.7926 28.514C35.898 27.0848 35.5939 25.6688 34.9131 24.4187C34.828 24.2634 34.6342 24.2065 34.479 24.2904C34.3237 24.3751 34.2664 24.5693 34.3506 24.7246C34.9727 25.8667 35.2505 27.1608 35.1544 28.4667C35.1414 28.6433 35.2737 28.7965 35.4499 28.8095Z" fill="white"/>
<path d="M33.2339 22.7625C33.108 22.8866 33.1065 23.089 33.2305 23.2149C33.3347 23.3207 33.4347 23.4289 33.5301 23.5396C33.5925 23.6126 33.6809 23.6503 33.7701 23.651C33.845 23.6516 33.9202 23.6263 33.981 23.5734C34.1152 23.4582 34.1301 23.2563 34.0148 23.1225C33.9103 23.0009 33.8004 22.8818 33.6863 22.7659C33.5623 22.64 33.3598 22.6385 33.2339 22.7625V22.7625Z" fill="white"/>
<path d="M25.7909 25.3099C24.3219 26.7562 24.3026 29.1135 25.75 30.5829C27.1955 32.0502 29.5549 32.0683 31.0242 30.6209C32.488 29.1793 32.5058 26.8146 31.0639 25.3496C29.619 23.8828 27.259 23.863 25.7909 25.3099V25.3099ZM30.575 30.1649C29.3607 31.3607 27.4015 31.3468 26.2061 30.1337C25.0075 28.917 25.0228 26.9652 26.2401 25.766C27.4544 24.569 29.4095 24.5823 30.6079 25.7988C31.802 27.0123 31.7873 28.9707 30.575 30.1649Z" fill="white"/>
<path d="M36.187 32.6015C35.7518 32.1597 34.5341 31.3238 33.3851 30.8176C34.6314 28.64 34.3437 25.811 32.4989 23.9362C32.3068 23.7412 32.1009 23.569 31.8894 23.4073L31.9885 10.2216C31.9929 9.63853 31.5217 9.16026 30.9387 9.15588L11.2631 9.00795C10.68 9.00357 10.2018 9.4747 10.1974 10.0578L10.0079 35.2555C10.0035 35.8386 10.4747 36.3169 11.0577 36.3212L30.7333 36.4692C31.3164 36.4736 31.7947 36.0024 31.799 35.4194L31.808 34.2284C32.2132 34.9279 32.6469 35.5338 32.9243 35.8154C33.8098 36.7143 35.2615 36.7258 36.1609 35.8398C37.0608 34.9534 37.0725 33.5005 36.187 32.6015V32.6015ZM31.9886 31.5992C30.0122 33.5466 26.7719 33.5786 24.7706 31.547C22.7933 29.5398 22.8305 26.2959 24.8282 24.332C24.8282 24.3316 24.8282 24.3316 24.8282 24.3316C26.8486 22.3413 30.0799 22.3927 32.0429 24.3854C34.0415 26.416 33.9629 29.6544 31.9886 31.5992V31.5992ZM31.1589 35.4146C31.1572 35.645 30.9686 35.8307 30.7381 35.829L11.0625 35.6811C10.8321 35.6794 10.6463 35.4908 10.6481 35.2603L10.8375 10.0626C10.8393 9.8321 11.0278 9.64638 11.2583 9.64811L30.9339 9.79604C31.1643 9.79777 31.3501 9.98631 31.3483 10.2168L31.2524 22.9761C29.0741 21.7253 26.297 22.0479 24.4471 23.8135C22.0974 26.0553 22.0819 29.7266 24.3142 31.9971C26.1231 33.8297 28.9314 34.238 31.1771 32.9952L31.1589 35.4146L31.1589 35.4146ZM35.7117 35.3838C35.0642 36.0216 34.0182 36.0137 33.3803 35.3662C33.004 34.9842 32.2756 33.8861 31.8184 32.8455L31.8204 32.581C32.0319 32.4246 32.2521 32.2399 32.4378 32.0569C32.6519 31.8461 32.9162 31.5304 33.0395 31.3621C34.1276 31.825 35.3314 32.6451 35.7309 33.0507C36.3688 33.6982 36.3601 34.7447 35.7117 35.3838V35.3838Z" fill="white"/>
<path d="M15.8692 11.9873L15.9615 11.9056C16.0936 11.7882 16.106 11.5863 15.9886 11.4537C15.8709 11.3216 15.6689 11.3093 15.5368 11.4266L15.4446 11.5084C15.3124 11.6257 15.3001 11.8277 15.4174 11.9602C15.5355 12.0927 15.7372 12.1041 15.8692 11.9873V11.9873Z" fill="white"/>
<path d="M13.6343 13.9713L15.08 12.6857C15.2117 12.5684 15.2237 12.366 15.1063 12.2339C14.9886 12.1018 14.7866 12.0898 14.6545 12.2076L13.2088 13.4932C13.0771 13.6105 13.0652 13.8129 13.1825 13.945C13.3009 14.0779 13.5035 14.0879 13.6343 13.9713Z" fill="white"/>
<path d="M13.3529 15.5968C13.2064 15.727 13.1566 15.9296 13.2256 16.1127C13.2947 16.2953 13.4655 16.4146 13.661 16.416L14.1486 16.4197L14.1174 20.5711L13.6623 20.5677C13.4856 20.5664 13.3411 20.7087 13.3398 20.8854C13.3385 21.0621 13.4808 21.2065 13.6575 21.2079C13.6147 21.2076 14.1158 21.2122 21.3168 21.2654C21.4935 21.2668 21.638 21.1245 21.6393 20.9478C21.6406 20.7711 21.4983 20.6266 21.3216 20.6253L20.869 20.6219L20.9002 16.4705L21.3849 16.4741C21.8143 16.4773 22.0218 15.9497 21.7057 15.6592L17.8702 12.1439C17.6922 11.9808 17.4221 11.9788 17.2409 12.1392L13.3529 15.5964C13.3529 15.5964 13.3529 15.5964 13.3529 15.5968V15.5968ZM18.4672 20.6038L16.5167 20.5892L16.5305 18.7537C16.5346 18.2161 16.9755 17.7818 17.5131 17.7858C18.0507 17.7898 18.485 18.2307 18.481 18.7684L18.4672 20.6038L18.4672 20.6038ZM19.1074 20.6086L19.1212 18.7732C19.1278 17.8826 18.4085 17.1523 17.5179 17.1456C16.6273 17.139 15.8971 17.8583 15.8904 18.7489L15.8766 20.5843L14.7575 20.5759L14.7887 16.4262L20.2601 16.4673L20.2289 20.6171L19.1074 20.6086ZM17.5512 12.72L20.9451 15.8306L14.1109 15.7792L17.5512 12.72Z" fill="white"/>
</svg>
